<?xml version="1.0" encoding="UTF-8"?>
<!DOCTYPE svg PUBLIC "-//W3C//DTD SVG 1.1//EN" "http://www.w3.org/Graphics/SVG/1.1/DTD/svg11.dtd">
<svg xmlns="http://www.w3.org/2000/svg" version="1.1" width="485px" height="208px" style="shape-rendering:geometricPrecision; text-rendering:geometricPrecision; image-rendering:optimizeQuality; fill-rule:evenodd; clip-rule:evenodd" xmlns:xlink="http://www.w3.org/1999/xlink">
<g><path style="opacity:1" fill="#fefefe" d="M -0.5,-0.5 C 161.167,-0.5 322.833,-0.5 484.5,-0.5C 484.5,68.8333 484.5,138.167 484.5,207.5C 322.833,207.5 161.167,207.5 -0.5,207.5C -0.5,138.167 -0.5,68.8333 -0.5,-0.5 Z"/></g>
<g><path style="opacity:1" fill="#e8ded2" d="M 77.5,69.5 C 77.1667,69.5 76.8333,69.5 76.5,69.5C 72.5,69.5 68.5,69.5 64.5,69.5C 62.8333,69.5 61.1667,69.5 59.5,69.5C 62.9619,68.5184 66.6286,68.185 70.5,68.5C 71.5,68.5 72.5,68.5 73.5,68.5C 72.0265,62.2519 74.0265,57.5852 79.5,54.5C 80.4756,56.1233 79.9756,57.4567 78,58.5C 77.5014,62.1516 77.3347,65.8183 77.5,69.5 Z"/></g>
<g><path style="opacity:1" fill="#1a1a19" d="M 104.5,69.5 C 104.5,73.1667 104.5,76.8333 104.5,80.5C 103.5,80.5 102.5,80.5 101.5,80.5C 101.5,79.1667 101.5,77.8333 101.5,76.5C 101.5,74.1667 101.5,71.8333 101.5,69.5C 103.024,62.217 100.524,56.8837 94,53.5C 94.3983,55.6313 95.3983,57.6313 97,59.5C 97.498,62.4816 97.6646,65.4816 97.5,68.5C 96.5,68.5 95.5,68.5 94.5,68.5C 95.8457,61.8573 93.5124,57.1907 87.5,54.5C 81.081,56.9809 78.7477,61.6475 80.5,68.5C 80.5,68.8333 80.5,69.1667 80.5,69.5C 80.5,71.8333 80.5,74.1667 80.5,76.5C 80.5,77.8333 80.5,79.1667 80.5,80.5C 79.5,80.5 78.5,80.5 77.5,80.5C 77.5,76.8333 77.5,73.1667 77.5,69.5C 77.3347,65.8183 77.5014,62.1516 78,58.5C 79.9756,57.4567 80.4756,56.1233 79.5,54.5C 74.0265,57.5852 72.0265,62.2519 73.5,68.5C 72.5,68.5 71.5,68.5 70.5,68.5C 69.2095,56.2901 74.7095,50.2901 87,50.5C 99.9252,50.2596 105.759,56.593 104.5,69.5 Z"/></g>
<g><path style="opacity:1" fill="#ece2d4" d="M 101.5,69.5 C 94.5,69.5 87.5,69.5 80.5,69.5C 80.5,69.1667 80.5,68.8333 80.5,68.5C 85.1667,68.5 89.8333,68.5 94.5,68.5C 95.5,68.5 96.5,68.5 97.5,68.5C 97.6646,65.4816 97.498,62.4816 97,59.5C 95.3983,57.6313 94.3983,55.6313 94,53.5C 100.524,56.8837 103.024,62.217 101.5,69.5 Z"/></g>
<g><path style="opacity:1" fill="#f8f8f8" d="M 94.5,68.5 C 89.8333,68.5 85.1667,68.5 80.5,68.5C 78.7477,61.6475 81.081,56.9809 87.5,54.5C 93.5124,57.1907 95.8457,61.8573 94.5,68.5 Z"/></g>
<g><path style="opacity:1" fill="#f8ae23" d="M 64.5,69.5 C 68.5,69.5 72.5,69.5 76.5,69.5C 76.5854,73.3975 76.0854,77.0642 75,80.5C 76.4659,82.3249 78.2992,82.8249 80.5,82C 81.807,80.0565 81.807,78.2232 80.5,76.5C 80.5,74.1667 80.5,71.8333 80.5,69.5C 87.5,69.5 94.5,69.5 101.5,69.5C 101.5,71.8333 101.5,74.1667 101.5,76.5C 98.6778,79.3746 99.3445,81.3746 103.5,82.5C 104.442,82.3918 105.275,82.0585 106,81.5C 105.983,77.5246 105.816,73.5246 105.5,69.5C 109.997,68.9445 114.164,69.6112 118,71.5C 121.298,99.1068 123.631,126.773 125,154.5C 124.5,155 124,155.5 123.5,156C 101.836,156.5 80.1692,156.667 58.5,156.5C 56.4667,151.46 55.9667,146.127 57,140.5C 59.0541,116.729 61.5541,93.062 64.5,69.5 Z"/></g>
<g><path style="opacity:1" fill="#f7952b" d="M 59.5,69.5 C 61.1667,69.5 62.8333,69.5 64.5,69.5C 61.5541,93.062 59.0541,116.729 57,140.5C 55.9667,146.127 56.4667,151.46 58.5,156.5C 55.8806,156.768 53.3806,156.435 51,155.5C 51.6729,127.426 53.6729,99.4265 57,71.5C 57.7083,70.6195 58.5416,69.9528 59.5,69.5 Z"/></g>
<g><path style="opacity:1" fill="#e78c24" d="M 104.5,69.5 C 104.833,69.5 105.167,69.5 105.5,69.5C 105.816,73.5246 105.983,77.5246 106,81.5C 105.275,82.0585 104.442,82.3918 103.5,82.5C 99.3445,81.3746 98.6778,79.3746 101.5,76.5C 101.5,77.8333 101.5,79.1667 101.5,80.5C 102.5,80.5 103.5,80.5 104.5,80.5C 104.5,76.8333 104.5,73.1667 104.5,69.5 Z"/></g>
<g><path style="opacity:1" fill="#e28a23" d="M 76.5,69.5 C 76.8333,69.5 77.1667,69.5 77.5,69.5C 77.5,73.1667 77.5,76.8333 77.5,80.5C 78.5,80.5 79.5,80.5 80.5,80.5C 80.5,79.1667 80.5,77.8333 80.5,76.5C 81.807,78.2232 81.807,80.0565 80.5,82C 78.2992,82.8249 76.4659,82.3249 75,80.5C 76.0854,77.0642 76.5854,73.3975 76.5,69.5 Z"/></g>
<g><path style="opacity:1" fill="#0d0d0d" d="M 195.5,90.5 C 202.67,89.5589 209.337,90.8922 215.5,94.5C 216.167,93.5 216.833,92.5 217.5,91.5C 218.833,96.8333 218.833,102.167 217.5,107.5C 216.35,102.366 214.017,97.8663 210.5,94C 199.769,89.7413 195.269,93.2413 197,104.5C 201.603,109.104 206.77,112.938 212.5,116C 216.092,118.921 218.925,122.421 221,126.5C 221.968,135.882 217.802,141.715 208.5,144C 201.335,145.44 194.669,144.273 188.5,140.5C 187.667,141.5 186.833,142.5 186,143.5C 185.169,137.141 185.336,130.807 186.5,124.5C 187.294,131.59 190.294,137.424 195.5,142C 206.215,144.28 210.715,140.114 209,129.5C 203.407,123.904 197.24,119.07 190.5,115C 182.572,104.836 184.238,96.6689 195.5,90.5 Z"/></g>
<g><path style="opacity:1" fill="#020202" d="M 248.5,106.5 C 245.5,106.5 242.5,106.5 239.5,106.5C 239.172,117.679 239.505,128.679 240.5,139.5C 243.947,141.293 246.447,140.293 248,136.5C 248.269,139.28 247.102,141.446 244.5,143C 236.703,146.62 231.703,144.453 229.5,136.5C 229.5,126.5 229.5,116.5 229.5,106.5C 227.265,106.795 225.265,106.461 223.5,105.5C 225.5,105.5 227.5,105.5 229.5,105.5C 229.5,102.167 229.5,98.8333 229.5,95.5C 232.883,95.7428 236.049,95.0761 239,93.5C 239.499,97.4862 239.666,101.486 239.5,105.5C 242.713,105.19 245.713,105.523 248.5,106.5 Z"/></g>
<g><path style="opacity:1" fill="#131313" d="M 307.5,109.5 C 310.524,104.357 314.857,103.19 320.5,106C 324.06,111.915 322.56,115.748 316,117.5C 311.794,116.472 310.461,113.805 312,109.5C 313.489,108.576 313.656,107.576 312.5,106.5C 310.64,107.26 308.973,108.26 307.5,109.5 Z"/></g>
<g><path style="opacity:1" fill="#090909" d="M 262.5,104.5 C 283.671,103.868 291.171,113.868 285,134.5C 282.993,139.838 279.159,143.004 273.5,144C 257.855,146.19 250.188,139.357 250.5,123.5C 250.257,114.288 254.257,107.955 262.5,104.5 Z"/></g>
<g><path style="opacity:1" fill="#111111" d="M 307.5,109.5 C 307.539,110.756 307.039,111.756 306,112.5C 305.333,121.167 305.333,129.833 306,138.5C 306.374,139.416 306.874,140.25 307.5,141C 309.256,141.202 310.922,141.702 312.5,142.5C 305.167,143.833 297.833,143.833 290.5,142.5C 291.628,141.738 292.795,141.071 294,140.5C 294.667,129.833 294.667,119.167 294,108.5C 292.795,107.929 291.628,107.262 290.5,106.5C 295.456,105.506 300.456,105.173 305.5,105.5C 305.34,107.199 305.506,108.866 306,110.5C 306.383,109.944 306.883,109.611 307.5,109.5 Z"/></g>
<g><path style="opacity:1" fill="#0b0b0b" d="M 356.5,120.5 C 349.5,120.5 342.5,120.5 335.5,120.5C 335.19,123.713 335.523,126.713 336.5,129.5C 337.632,136.474 341.632,139.307 348.5,138C 351.076,137.218 353.076,135.718 354.5,133.5C 354.545,138.672 351.878,142.172 346.5,144C 339.135,145.948 332.968,144.115 328,138.5C 323.483,129.394 323.483,120.394 328,111.5C 334.614,104.017 342.448,102.517 351.5,107C 355.234,110.699 356.901,115.199 356.5,120.5 Z"/></g>
<g><path style="opacity:1" fill="#101010" d="M 153.5,105.5 C 154.873,105.343 156.207,105.51 157.5,106C 156.692,106.308 156.025,106.808 155.5,107.5C 160.353,110.591 160.686,114.091 156.5,118C 149.495,119.324 146.995,116.49 149,109.5C 150.397,107.93 151.897,106.596 153.5,105.5 Z"/></g>
<g><path style="opacity:1" fill="#f3f3f3" d="M 266.5,105.5 C 271.358,105.854 274.192,108.521 275,113.5C 276.136,122.673 275.469,131.673 273,140.5C 268.337,143.836 265.004,142.836 263,137.5C 261.081,128.818 261.081,120.152 263,111.5C 263.926,109.308 265.093,107.308 266.5,105.5 Z"/></g>
<g><path style="opacity:1" fill="#f5f5f5" d="M 346.5,112.5 C 346.5,114.5 346.5,116.5 346.5,118.5C 342.833,118.5 339.167,118.5 335.5,118.5C 335.347,114.125 336.68,110.292 339.5,107C 344.291,105.62 346.624,107.453 346.5,112.5 Z"/></g>
<g><path style="opacity:1" fill="#9d9d9d" d="M 223.5,105.5 C 225.265,106.461 227.265,106.795 229.5,106.5C 229.5,116.5 229.5,126.5 229.5,136.5C 228.506,127.014 228.173,117.348 228.5,107.5C 226.396,107.799 224.396,107.466 222.5,106.5C 222.624,105.893 222.957,105.56 223.5,105.5 Z"/></g>
<g><path style="opacity:1" fill="#b1b1b1" d="M 248.5,106.5 C 246.052,107.473 243.385,107.806 240.5,107.5C 240.5,118.167 240.5,128.833 240.5,139.5C 239.505,128.679 239.172,117.679 239.5,106.5C 242.5,106.5 245.5,106.5 248.5,106.5 Z"/></g>
<g><path style="opacity:1" fill="#b0b0b0" d="M 346.5,112.5 C 347.468,114.607 347.802,116.941 347.5,119.5C 343.298,119.817 339.298,119.483 335.5,118.5C 339.167,118.5 342.833,118.5 346.5,118.5C 346.5,116.5 346.5,114.5 346.5,112.5 Z"/></g>
<g><path style="opacity:1" fill="#c0c0c0" d="M 356.5,120.5 C 350.021,121.491 343.354,121.824 336.5,121.5C 336.5,124.167 336.5,126.833 336.5,129.5C 335.523,126.713 335.19,123.713 335.5,120.5C 342.5,120.5 349.5,120.5 356.5,120.5 Z"/></g>
<g><path style="opacity:1" fill="#0a0a0a" d="M 158.5,105.5 C 164.451,103.547 169.951,104.547 175,108.5C 176.287,119.069 176.954,129.735 177,140.5C 178.113,141.711 179.28,141.711 180.5,140.5C 181.696,140.846 181.696,141.346 180.5,142C 176.625,143.52 172.625,143.854 168.5,143C 167.54,141.581 166.707,140.081 166,138.5C 161.86,143.211 156.694,144.711 150.5,143C 146.215,139.272 145.382,134.772 148,129.5C 153.817,125.788 159.817,122.455 166,119.5C 166.854,115.375 166.52,111.375 165,107.5C 163.103,105.984 160.936,105.317 158.5,105.5 Z"/></g>
<g><path style="opacity:1" fill="#ededed" d="M 165.5,121.5 C 166.65,126.316 166.816,131.316 166,136.5C 163,140.5 160,140.5 157,136.5C 156.333,134.167 156.333,131.833 157,129.5C 159.729,126.601 162.562,123.934 165.5,121.5 Z"/></g>
</svg>
